<svg xmlns="http://www.w3.org/2000/svg" viewBox="0 0 55.2 122.87"><defs><style>.cls-1{fill:#ffa8be;}</style></defs><title>Asset 2</title><g id="Layer_2" data-name="Layer 2"><g id="Layer_1-2" data-name="Layer 1"><path class="cls-1" d="M46.26,95.4a1.85,1.85,0,1,0-1.85-1.85A1.85,1.85,0,0,0,46.26,95.4Z"/><path class="cls-1" d="M55.2,10.44A19.36,19.36,0,0,0,38.4,0,19.25,19.25,0,0,0,21.82,9.6H21.6c-9.11,0-16.8,8-16.8,17.52A14.7,14.7,0,0,0,5,29.63,16.56,16.56,0,0,0,3.09,51.14,19.22,19.22,0,0,0,0,61.44,16.67,16.67,0,0,0,6.08,74.33a16.2,16.2,0,0,0-1.28,6.3,17.87,17.87,0,0,0,9.7,15.82,14.39,14.39,0,0,0,10.92,15.7c2.76,6.38,8.9,10.72,15.38,10.72a16.87,16.87,0,0,0,14.4-8.64M16.8,43.92A16.19,16.19,0,0,0,6.56,47.69,11.78,11.78,0,0,1,9.17,32.34a2.38,2.38,0,0,0,.8-2.41,12.07,12.07,0,0,1-.37-2.81c0-7.45,6.74-13.47,12.81-12.64l.51.06a2.39,2.39,0,0,0,2.45-1.37,14.44,14.44,0,0,1,13-8.37c7.8,0,14.4,6.92,14.4,15.12a14.42,14.42,0,0,1-14.4,14.4,2.4,2.4,0,0,0,0,4.8A19.17,19.17,0,0,0,52.8,32.6V78.23A4.81,4.81,0,0,1,48,83a2.4,2.4,0,1,0,0,4.8,9.57,9.57,0,0,0,4.8-1.29v18.81c0,6.78-5.61,12.72-12,12.72-4.14,0-7.66-2.55-9.78-5.69a14.33,14.33,0,0,0,8-4,2.4,2.4,0,0,0-3.39-3.4A9.6,9.6,0,0,1,19.2,98.15V98a14.84,14.84,0,0,0,2.4.19c9.1,0,16.8-8,16.8-17.52a2.4,2.4,0,0,0-4.8,0c0,6.78-5.61,12.72-12,12.72-6.72,0-12-6.24-12-12.72a11.78,11.78,0,0,1,1.61-5.87,2.4,2.4,0,0,0-.81-3.21A11.93,11.93,0,0,1,4.8,61.44c0-6.8,5.51-12.72,12-12.72a2.4,2.4,0,1,0,0-4.8Z"/><path class="cls-1" d="M29.84,61.63a7.23,7.23,0,0,1,6.87,5A16.82,16.82,0,0,0,22.64,83.23a2.4,2.4,0,1,0,4.8,0,12,12,0,0,1,20-8.94,2.4,2.4,0,1,0,3.2-3.58,16.73,16.73,0,0,0-9-4.13,12,12,0,0,0-11.79-9.75,2.4,2.4,0,1,0,0,4.8Z"/><path class="cls-1" d="M25,32.12c9.11,0,16.8-8,16.8-17.52a2.4,2.4,0,0,0-4.8,0c0,6.77-5.61,12.72-12,12.72a2.4,2.4,0,0,0,0,4.8Z"/><path class="cls-1" d="M25.45,40.37A21.55,21.55,0,0,0,44.24,51.31a2.4,2.4,0,0,0,0-4.8A16.74,16.74,0,0,1,29.63,38a2.4,2.4,0,0,0-4.18,2.37Z"/></g></g></svg>