<svg xmlns="http://www.w3.org/2000/svg" viewBox="0 0 55.2 122.87"><defs><style>.cls-1{fill:#ffa8be;}</style></defs><title>Asset 1</title><g id="Layer_2" data-name="Layer 2"><g id="Layer_1-2" data-name="Layer 1"><path class="cls-1" d="M10.78,93.55A1.85,1.85,0,1,0,8.93,95.4,1.84,1.84,0,0,0,10.78,93.55Z"/><path class="cls-1" d="M0,114.23a16.86,16.86,0,0,0,14.4,8.64c6.47,0,12.61-4.34,15.37-10.72a14.38,14.38,0,0,0,10.92-15.7A17.88,17.88,0,0,0,50.4,80.63a16.2,16.2,0,0,0-1.28-6.3A16.67,16.67,0,0,0,55.2,61.44a19.22,19.22,0,0,0-3.09-10.3,16.56,16.56,0,0,0-1.93-21.51,15.78,15.78,0,0,0,.22-2.51c0-9.5-7.7-17.52-16.8-17.52h-.22A19.26,19.26,0,0,0,16.8,0,19.35,19.35,0,0,0,0,10.44M36,46.32a2.4,2.4,0,0,0,2.4,2.4c6.49,0,12,5.92,12,12.72a11.94,11.94,0,0,1-5.61,10.11,2.4,2.4,0,0,0-.8,3.21,11.78,11.78,0,0,1,1.61,5.87c0,6.48-5.29,12.72-12,12.72-6.39,0-12-5.94-12-12.72a2.4,2.4,0,0,0-4.8,0c0,9.5,7.69,17.52,16.8,17.52A14.72,14.72,0,0,0,36,98c0,.07,0,.13,0,.19a9.6,9.6,0,0,1-16.39,6.79,2.4,2.4,0,1,0-3.39,3.4,14.3,14.3,0,0,0,8,4c-2.12,3.14-5.64,5.69-9.78,5.69-6.39,0-12-5.94-12-12.72V86.54a9.52,9.52,0,0,0,4.8,1.29,2.4,2.4,0,1,0,0-4.8,4.8,4.8,0,0,1-4.8-4.8V32.6a19.17,19.17,0,0,0,14.4,6.52,2.4,2.4,0,0,0,0-4.8A14.42,14.42,0,0,1,2.4,19.92C2.4,11.72,9,4.8,16.8,4.8a14.45,14.45,0,0,1,13,8.37,2.38,2.38,0,0,0,2.45,1.37c.17,0,.34,0,.5-.06,6.08-.83,12.82,5.19,12.82,12.64a11.61,11.61,0,0,1-.38,2.81,2.42,2.42,0,0,0,.8,2.41,11.77,11.77,0,0,1,2.62,15.35A16.19,16.19,0,0,0,38.4,43.92,2.39,2.39,0,0,0,36,46.32Z"/><path class="cls-1" d="M27.75,59.23a2.4,2.4,0,0,0-2.4-2.4,12,12,0,0,0-11.78,9.75,16.73,16.73,0,0,0-9,4.13,2.4,2.4,0,0,0,3.2,3.58,12,12,0,0,1,20,8.94,2.4,2.4,0,0,0,4.8,0A16.81,16.81,0,0,0,18.49,66.66a7.21,7.21,0,0,1,6.86-5A2.39,2.39,0,0,0,27.75,59.23Z"/><path class="cls-1" d="M32.55,29.72a2.39,2.39,0,0,0-2.4-2.4c-6.39,0-12-5.95-12-12.72a2.4,2.4,0,1,0-4.8,0c0,9.49,7.7,17.52,16.8,17.52A2.4,2.4,0,0,0,32.55,29.72Z"/><path class="cls-1" d="M28.84,37.1a2.39,2.39,0,0,0-3.27.9A16.76,16.76,0,0,1,11,46.51a2.4,2.4,0,1,0,0,4.8A21.52,21.52,0,0,0,29.74,40.37,2.39,2.39,0,0,0,28.84,37.1Z"/></g></g></svg>