<?xml version="1.0" standalone="no"?>
<!DOCTYPE svg PUBLIC "-//W3C//DTD SVG 20010904//EN"
 "http://www.w3.org/TR/2001/REC-SVG-20010904/DTD/svg10.dtd">
<svg version="1.0" xmlns="http://www.w3.org/2000/svg"
 width="512.000000pt" height="512.000000pt" viewBox="0 0 512.000000 512.000000"
 preserveAspectRatio="xMidYMid meet">
<metadata>
Created by potrace 1.11, written by Peter Selinger 2001-2013
</metadata>
<g transform="translate(0.000000,512.000000) scale(0.100000,-0.100000)"
fill="#000000" stroke="none">
<path d="M2378 5115 c-2 -1 -39 -5 -82 -9 -44 -4 -82 -9 -85 -11 -4 -2 -34 -7
-66 -10 -117 -14 -472 -111 -499 -136 -6 -5 -16 -9 -23 -9 -8 0 -49 -16 -91
-35 -352 -161 -618 -354 -877 -637 -33 -36 -71 -80 -85 -98 -14 -18 -29 -38
-35 -44 -82 -92 -246 -369 -323 -546 -61 -142 -131 -351 -146 -443 -3 -15 -7
-35 -10 -45 -3 -9 -7 -34 -11 -56 -3 -21 -7 -41 -9 -45 -4 -6 -12 -72 -26
-201 -8 -85 -5 -454 5 -515 3 -22 13 -83 21 -135 126 -770 602 -1443 1289
-1823 265 -146 615 -261 895 -293 30 -3 76 -10 103 -14 48 -7 472 -5 517 4 14
2 45 7 70 10 25 4 92 16 150 27 58 12 115 23 128 25 38 7 320 103 370 125 365
164 645 365 905 649 316 345 547 824 623 1290 38 235 40 573 5 805 -45 295
-136 561 -288 847 -35 64 -63 123 -63 130 0 7 -13 28 -30 46 -16 18 -41 48
-56 67 l-26 35 61 61 61 62 65 -62 c53 -51 69 -61 87 -56 13 4 66 50 119 102
118 116 119 124 36 206 -54 54 -56 59 -43 80 15 23 19 44 17 91 -1 24 -39 68
-213 242 -116 117 -225 220 -243 228 -35 17 -91 12 -117 -11 -15 -13 -22 -9
-71 41 -86 88 -93 87 -215 -38 -120 -122 -120 -120 -36 -207 l55 -55 -61 -63
c-68 -71 -54 -71 -145 6 -27 24 -58 43 -68 43 -9 0 -36 12 -58 26 -45 28 -293
154 -304 154 -4 0 -21 6 -38 14 -137 62 -421 138 -607 162 -25 3 -56 8 -70 10
-27 6 -456 14 -462 9z"/>
</g>
</svg>
